<svg width="295" height="357" viewBox="0 0 295 357" fill="none" xmlns="http://www.w3.org/2000/svg">
<path d="M232.182 182.065C217.141 178.621 193.358 180.271 187.227 197.281C181.654 212.74 190.491 229.168 201.546 239.71C208.906 246.728 220.192 252.054 228.797 244.058C246.415 227.686 259.46 202.6 267.417 180.24C272.641 165.561 276.952 144.576 264.466 132.159C257.08 124.813 246.619 120.669 236.868 117.682C221.22 112.89 204.766 111.152 188.442 112.161C149.156 114.591 112.337 135.218 87.9432 165.98C59.4792 201.876 56.126 253.382 89.5488 287.443C114.89 313.269 153.077 315.859 184.016 299.268C203.138 289.014 219.186 273.672 232.789 256.925C249.41 236.466 263.858 213.662 274.273 189.412C290.649 151.283 300.571 105.294 285.729 65.0367C273.942 33.066 247.53 12.5427 214.694 5.21822C170.928 -4.54451 123.572 8.49815 88.7677 36.3012C46.3282 70.204 8.12164 116.201 2.50224 172.327C-4.00872 237.359 54.0027 284.378 105.908 310.267C157.666 336.081 215.165 351.553 272.798 355" stroke="url(#paint0_linear_1027_400)" stroke-opacity="0.08" stroke-width="3" stroke-linecap="round"/>
<defs>
<linearGradient id="paint0_linear_1027_400" x1="103.5" y1="61" x2="271.5" y2="311.5" gradientUnits="userSpaceOnUse">
<stop stop-color="white" stop-opacity="0.41"/>
<stop offset="1" stop-color="white"/>
</linearGradient>
</defs>
</svg>
