<svg width="173" height="24" viewBox="0 0 173 24" fill="none" xmlns="http://www.w3.org/2000/svg">
<path fill-rule="evenodd" clip-rule="evenodd" d="M8.67893 0.409627C5.26216 1.2147 2.33099 3.69365 0.812343 7.06242C0.217634 8.38195 0.0181473 9.59912 0.00202344 12.0008C-0.0174752 14.9339 0.0826426 15.3771 1.25894 17.5583C2.77833 20.3766 5.16617 22.5957 7.554 23.4094C8.64368 23.7806 10.5853 24 12.7826 24C16.9426 24 17.7781 24.0015 17.7781 21.0002C17.7781 17.9989 16.922 18.0008 12.9971 17.9989C10.3851 17.9978 9.46712 17.8456 8.49406 17.2523C6.68781 16.151 5.78188 14.4235 5.78038 12.0758C5.7785 9.77311 6.40621 8.3617 8.0441 6.9833C9.16489 6.04024 14.7644 5.98024 19.1981 5.98024C25.0409 5.98024 23.5901 5.62627 25.4564 1.97589C26.215 0.0181535 24.5426 -0.0219687 19.8404 0.0181535C17.4316 0.0391521 9.45587 0.226639 8.67893 0.409627ZM29.8515 0.65786C29.4345 1.01896 27.1948 5.61689 24.8748 10.8759C21.653 18.1782 20.6485 20.8363 20.6234 22.1251L20.5904 23.8125L22.9666 23.925C24.2737 23.9869 25.5535 23.8628 25.8111 23.649C26.0684 23.4357 26.5041 22.5788 26.7789 21.7457L27.2791 20.2304L32.5284 20.3343L37.7777 20.4377L38.1384 21.5627C38.7931 23.6029 39.4186 24 41.9763 24C44.8084 24 45.4628 23.4705 44.8924 21.6414C44.6858 20.9796 42.5162 15.9909 40.0703 10.5564C36.5253 2.67822 35.4442 0.606488 34.7385 0.338381C33.2514 -0.22708 30.6805 -0.059091 29.8515 0.65786ZM49.1398 0.550992C46.1377 1.62117 44.4012 4.17024 44.4012 7.50789C44.4012 9.71911 44.9626 10.9584 46.7373 12.6634C48.3932 14.2544 49.802 14.6256 54.1817 14.6256C57.7008 14.6256 57.7897 14.6474 58.228 15.6092C58.5944 16.4128 58.5692 16.7555 58.0919 17.4841C57.5287 18.3435 57.3416 18.3754 52.8295 18.3754C48.6508 18.3754 48.0707 18.4556 47.401 19.1253C46.9368 19.5896 46.6511 20.3751 46.6511 21.1877C46.6511 22.0003 46.9368 22.7858 47.401 23.2501C48.0767 23.9258 48.6508 24 53.1887 24C58.7496 24 59.7452 23.7641 61.602 22.0085C64.0514 19.6923 64.8328 16.6869 63.6944 13.9627C62.2834 10.5853 59.9896 9.39588 54.8649 9.38426C51.0203 9.37526 50.0258 8.93991 50.0258 7.26528C50.0258 5.83625 50.7308 5.62627 55.5248 5.62627C60.6755 5.62627 60.9001 5.50965 60.9001 2.83871C60.9001 0.394253 60.0725 -0.000970158 54.9942 0.0181535C52.2446 0.0282778 50.0438 0.228514 49.1398 0.550992ZM63.2437 0.377754C62.5158 0.679608 62.4 1.00584 62.4 2.75584C62.4 3.96476 62.5972 4.94831 62.8882 5.1898C63.1567 5.41253 64.8864 5.64427 66.7317 5.70426L70.087 5.81375L70.1878 14.4085C70.2534 19.9788 70.4346 23.1784 70.7027 23.5017C71.2535 24.1654 74.92 24.1654 75.4708 23.5017C75.7389 23.1784 75.9201 19.9788 75.9857 14.4085L76.0865 5.81375L78.1489 5.70501C80.536 5.57864 81.1487 5.02668 81.1487 3.00145C81.1487 0.225514 81.0658 0.198891 72.0863 0.108522C67.6871 0.0642754 63.7079 0.185392 63.2437 0.377754ZM83.7735 0.275011C82.1649 0.887344 82.2706 3.01495 84.0397 5.63114C84.8051 6.76281 86.3237 9.1064 87.4145 10.8395L89.3981 13.9901V18.4058C89.3981 23.6217 89.6014 24 92.4035 24C94.998 24 95.3977 23.3082 95.3977 18.8201V15.3074L97.9048 11.3105C99.284 9.11203 101.14 6.18723 102.03 4.8107C103.84 2.00889 104.026 0.980712 102.836 0.343631C102.044 -0.0800897 98.4579 0.0631507 97.6701 0.550242C97.4653 0.676608 96.3513 2.54548 95.1937 4.70308C94.0366 6.86068 92.9761 8.62344 92.8374 8.62044C92.699 8.61744 91.7417 7.00167 90.7105 5.02968C88.292 0.404752 87.8979 -0.00584452 85.915 0.0312779C85.0465 0.0474018 84.0829 0.157269 83.7735 0.275011ZM111.803 0.260012C111.442 0.354506 111.055 0.79885 110.942 1.24807C110.829 1.69691 110.787 6.83743 110.848 12.6713C110.942 21.608 111.048 23.334 111.522 23.6333C112.329 24.1429 115.788 24.0829 116.321 23.55C116.599 23.2722 116.771 21.9084 116.771 19.9878V16.8755H119.446C120.918 16.8755 122.764 16.6828 123.55 16.4476C127.868 15.1536 130.692 9.54175 129.124 5.36941C128.435 3.53691 125.774 1.15658 123.738 0.551742C121.979 0.0297779 113.48 -0.178333 111.803 0.260012ZM137.61 0.845347C136.003 3.29805 127.96 22.079 128.099 23.0513C128.194 23.7184 128.525 23.8264 130.773 23.9243C133.716 24.0521 134.205 23.7848 134.828 21.7055L135.264 20.2503H140.417H145.571L145.987 21.4446C146.716 23.5354 147.406 24 149.781 24C152.28 24 152.978 23.4533 152.64 21.7614C152.282 19.9739 143.786 0.985212 143.114 0.470373C142.777 0.21239 141.525 0.00165478 140.332 0.00165478C138.495 0.00165478 138.077 0.131396 137.61 0.845347ZM151.083 0.750103C150.311 1.60279 149.77 0.550617 155.903 10.1192L159.143 15.1746V19.1373C159.143 21.7194 159.3 23.2568 159.593 23.55C160.177 24.1339 163.734 24.1339 164.318 23.55C164.614 23.2542 164.768 21.6782 164.768 18.9521V14.8041L168.336 9.24814C173.209 1.66054 173.232 1.61067 172.424 0.717481C171.917 0.157644 171.263 0.00165478 169.416 0.00165478C167.188 0.00165478 167.005 0.0699 166.153 1.22032C165.657 1.89077 164.51 3.83089 163.603 5.53215C162.697 7.23341 161.871 8.62306 161.768 8.62006C161.665 8.61744 160.737 6.9818 159.706 4.98506C157.201 0.134771 157.052 0.00165478 154.139 0.00165478C152.238 0.00165478 151.624 0.15202 151.083 0.750103ZM122.908 6.40359C124.058 7.30878 124.238 9.09478 123.312 10.4173C122.792 11.1598 122.403 11.2509 119.75 11.2509H116.771V8.68868C116.771 7.27915 116.884 6.01362 117.021 5.87637C117.159 5.73876 118.317 5.62627 119.596 5.62627C121.379 5.62627 122.15 5.807 122.908 6.40359ZM143.392 14.7194C143.393 14.8743 142.027 15.0006 140.355 15.0006C138.069 15.0006 137.363 14.8844 137.508 14.5319C137.614 14.2743 138.334 12.5824 139.108 10.7728L140.514 7.48201L141.952 10.9603C142.742 12.873 143.391 14.5645 143.392 14.7194ZM33.7992 10.3134C34.224 11.3446 34.8454 12.8213 35.1795 13.5945L35.7869 15.0006H32.6293H29.4716L30.685 12.0946C31.3525 10.4961 32.0173 8.86492 32.1624 8.4697C32.4935 7.56863 32.8179 7.93386 33.7992 10.3134Z" fill="url(#paint0_linear_1044_229)"/>
<defs>
<linearGradient id="paint0_linear_1044_229" x1="0" y1="12" x2="172.819" y2="12" gradientUnits="userSpaceOnUse">
<stop stop-color="#3C9B51"/>
<stop offset="1" stop-color="#53B669"/>
</linearGradient>
</defs>
</svg>
