<svg width="174" height="24" viewBox="0 0 174 24" fill="none" xmlns="http://www.w3.org/2000/svg">
<path fill-rule="evenodd" clip-rule="evenodd" d="M9.26926 0.409627C5.85249 1.2147 2.92132 3.69365 1.40268 7.06242C0.807966 8.38195 0.608479 9.59912 0.592355 12.0008C0.572857 14.9339 0.672975 15.3771 1.84927 17.5583C3.36866 20.3766 5.7565 22.5957 8.14434 23.4094C9.23401 23.7806 11.1756 24 13.373 24C17.5329 24 18.3684 24.0015 18.3684 21.0002C18.3684 17.9989 17.5123 18.0008 13.5875 17.9989C10.9754 17.9978 10.0575 17.8456 9.0844 17.2523C7.27815 16.151 6.37221 14.4235 6.37071 12.0758C6.36883 9.77311 6.99654 8.3617 8.63443 6.9833C9.75523 6.04024 15.3547 5.98024 19.7884 5.98024C25.6313 5.98024 24.1805 5.62627 26.0467 1.97589C26.8053 0.0181535 25.1329 -0.0219687 20.4307 0.0181535C18.0219 0.0391521 10.0462 0.226639 9.26926 0.409627ZM30.4418 0.65786C30.0248 1.01896 27.7851 5.61689 25.4651 10.8759C22.2434 18.1782 21.2388 20.8363 21.2137 22.1251L21.1807 23.8125L23.5569 23.925C24.8641 23.9869 26.1438 23.8628 26.4015 23.649C26.6587 23.4357 27.0944 22.5788 27.3693 21.7457L27.8695 20.2304L33.1187 20.3343L38.368 20.4377L38.7287 21.5627C39.3834 23.6029 40.0089 24 42.5666 24C45.3988 24 46.0531 23.4705 45.4828 21.6414C45.2762 20.9796 43.1066 15.9909 40.6606 10.5564C37.1156 2.67822 36.0345 0.606488 35.3288 0.338381C33.8417 -0.22708 31.2709 -0.059091 30.4418 0.65786ZM49.7301 0.550992C46.7281 1.62117 44.9916 4.17024 44.9916 7.50789C44.9916 9.71911 45.5529 10.9584 47.3276 12.6634C48.9835 14.2544 50.3923 14.6256 54.772 14.6256C58.2911 14.6256 58.38 14.6474 58.8183 15.6092C59.1847 16.4128 59.1596 16.7555 58.6822 17.4841C58.119 18.3435 57.9319 18.3754 53.4198 18.3754C49.2411 18.3754 48.6611 18.4556 47.9913 19.1253C47.5271 19.5896 47.2414 20.3751 47.2414 21.1877C47.2414 22.0003 47.5271 22.7858 47.9913 23.2501C48.6671 23.9258 49.2411 24 53.7791 24C59.3399 24 60.3355 23.7641 62.1924 22.0085C64.6417 19.6923 65.4231 16.6869 64.2847 13.9627C62.8737 10.5853 60.58 9.39588 55.4552 9.38426C51.6106 9.37526 50.6162 8.93991 50.6162 7.26528C50.6162 5.83625 51.3211 5.62627 56.1152 5.62627C61.2658 5.62627 61.4904 5.50965 61.4904 2.83871C61.4904 0.394253 60.6628 -0.000970158 55.5846 0.0181535C52.8349 0.0282778 50.6342 0.228514 49.7301 0.550992ZM63.834 0.377754C63.1062 0.679608 62.9903 1.00584 62.9903 2.75584C62.9903 3.96476 63.1875 4.94831 63.4785 5.1898C63.747 5.41253 65.4768 5.64427 67.322 5.70426L70.6773 5.81375L70.7782 14.4085C70.8438 19.9788 71.0249 23.1784 71.293 23.5017C71.8438 24.1654 75.5103 24.1654 76.0612 23.5017C76.3293 23.1784 76.5104 19.9788 76.576 14.4085L76.6769 5.81375L78.7392 5.70501C81.1263 5.57864 81.739 5.02668 81.739 3.00145C81.739 0.225514 81.6562 0.198891 72.6767 0.108522C68.2775 0.0642754 64.2982 0.185392 63.834 0.377754ZM84.3638 0.275011C82.7552 0.887344 82.861 3.01495 84.6301 5.63114C85.3954 6.76281 86.914 9.1064 88.0048 10.8395L89.9885 13.9901V18.4058C89.9885 23.6217 90.1917 24 92.9939 24C95.5883 24 95.988 23.3082 95.988 18.8201V15.3074L98.4951 11.3105C99.8743 9.11203 101.73 6.18723 102.62 4.8107C104.431 2.00889 104.616 0.980712 103.426 0.343631C102.634 -0.0800897 99.0482 0.0631507 98.2604 0.550242C98.0557 0.676608 96.9416 2.54548 95.7841 4.70308C94.6269 6.86068 93.5665 8.62344 93.4277 8.62044C93.2894 8.61744 92.332 7.00167 91.3009 5.02968C88.8823 0.404752 88.4882 -0.00584452 86.5053 0.0312779C85.6369 0.0474018 84.6732 0.157269 84.3638 0.275011ZM112.394 0.260012C112.033 0.354506 111.645 0.79885 111.533 1.24807C111.42 1.69691 111.378 6.83743 111.438 12.6713C111.532 21.608 111.638 23.334 112.112 23.6333C112.919 24.1429 116.379 24.0829 116.912 23.55C117.189 23.2722 117.362 21.9084 117.362 19.9878V16.8755H120.037C121.508 16.8755 123.354 16.6828 124.14 16.4476C128.459 15.1536 131.282 9.54175 129.714 5.36941C129.025 3.53691 126.364 1.15658 124.328 0.551742C122.569 0.0297779 114.07 -0.178333 112.394 0.260012ZM138.2 0.845347C136.594 3.29805 128.55 22.079 128.689 23.0513C128.785 23.7184 129.116 23.8264 131.363 23.9243C134.306 24.0521 134.795 23.7848 135.418 21.7055L135.854 20.2503H141.007H146.161L146.578 21.4446C147.307 23.5354 147.996 24 150.372 24C152.87 24 153.568 23.4533 153.23 21.7614C152.873 19.9739 144.377 0.985212 143.704 0.470372C143.367 0.21239 142.115 0.00165478 140.922 0.00165478C139.086 0.00165478 138.668 0.131396 138.2 0.845347ZM151.673 0.750103C150.902 1.60279 150.36 0.550617 156.493 10.1192L159.734 15.1746V19.1373C159.734 21.7194 159.89 23.2568 160.184 23.55C160.767 24.1339 164.324 24.1339 164.908 23.55C165.204 23.2542 165.358 21.6782 165.358 18.9521V14.8041L168.926 9.24814C173.799 1.66054 173.823 1.61067 173.015 0.717481C172.508 0.157644 171.853 0.00165478 170.006 0.00165478C167.779 0.00165478 167.596 0.0699 166.744 1.22032C166.247 1.89077 165.1 3.83089 164.194 5.53215C163.287 7.23341 162.462 8.62306 162.358 8.62006C162.255 8.61744 161.327 6.9818 160.296 4.98506C157.791 0.134771 157.642 0.00165478 154.73 0.00165478C152.828 0.00165478 152.214 0.15202 151.673 0.750103ZM123.498 6.40359C124.649 7.30878 124.829 9.09478 123.902 10.4173C123.383 11.1598 122.993 11.2509 120.34 11.2509H117.362V8.68868C117.362 7.27915 117.474 6.01362 117.612 5.87637C117.749 5.73876 118.908 5.62627 120.186 5.62627C121.969 5.62627 122.74 5.807 123.498 6.40359ZM143.982 14.7194C143.984 14.8743 142.617 15.0006 140.945 15.0006C138.66 15.0006 137.953 14.8844 138.098 14.5319C138.205 14.2743 138.924 12.5824 139.698 10.7728L141.105 7.48201L142.542 10.9603C143.333 12.873 143.981 14.5645 143.982 14.7194ZM34.3895 10.3134C34.8144 11.3446 35.4357 12.8213 35.7698 13.5945L36.3773 15.0006H33.2196H30.062L31.2754 12.0946C31.9428 10.4961 32.6077 8.86492 32.7528 8.4697C33.0839 7.56863 33.4082 7.93386 34.3895 10.3134Z" fill="#282432"/>
<path fill-rule="evenodd" clip-rule="evenodd" d="M92.8612 7.83381C91.6946 7.62405 90.4917 6.95442 89.2982 5.826C88.0348 4.63 87.0019 3.842 87.0039 4.076C87.0059 4.309 88.1232 6.714 89.4869 9.419C90.8506 12.125 91.966 15.388 91.966 16.669C91.966 17.951 92.4129 19 92.9592 19C93.5055 19 93.9604 18.212 93.9703 17.25C93.9802 16.288 95.3221 13.064 96.9529 10.086C100.143 4.257 100.316 2.787 97.4346 5.994C96.3769 7.17041 95.2008 7.80333 93.9648 7.89414C93.6774 8.35208 93.4818 8.62161 93.4275 8.62044C93.3685 8.61916 93.1604 8.32444 92.8612 7.83381ZM161.896 7.93436C160.472 7.94367 159.09 7.3032 158.281 6C157.12 4.129 154.971 3.095 155.698 4.757C155.879 5.174 157.361 8.211 158.99 11.507L161.952 17.5L165.142 11.027C168.338 4.544 168.741 1.7 165.881 5.81C165.129 6.89103 164.049 7.56241 162.914 7.81746C162.614 8.31681 162.407 8.62147 162.358 8.62006C162.318 8.61903 162.149 8.36453 161.896 7.93436ZM143.659 14.8454C143.866 14.8075 143.982 14.7646 143.982 14.7194C143.982 14.6853 143.95 14.577 143.893 14.4083C145.064 12.0521 144.627 10.0812 142.62 9C142.248 8.79968 141.894 8.65216 141.549 8.55744L141.104 7.48201L140.699 8.43066C140.037 8.4173 139.377 8.60708 138.647 9C136.284 10.273 136.101 12.751 138.152 15.699C139.573 17.741 139.474 17.9 136.1 19.021C134.15 19.669 132.398 20.041 132.205 19.848C132.013 19.654 133.46 15.784 135.42 11.248C139.313 2.24 141.778 0.601 143.691 5.75C144.253 7.263 145.806 10.726 147.142 13.446C150.578 20.438 150.391 21.163 145.638 19.283C141.922 17.813 141.784 17.612 143.155 15.641C143.342 15.372 143.51 15.1066 143.659 14.8454ZM33.4763 8.36392C33.981 8.35226 34.5216 8.55229 35.2315 8.935C37.7255 10.279 38.0274 14.18 35.7828 16.056C34.4191 17.195 34.6883 17.582 37.946 19.178C39.993 20.18 41.8106 21 41.9864 21C42.9886 21 41.9963 17.161 39.9523 13.135C38.6581 10.586 37.1038 7.263 36.4969 5.75C34.4976 0.76 32.1387 2.27 28.0844 11.134C26.0373 15.608 24.5714 19.478 24.8256 19.734C25.354 20.266 32.3731 18.084 32.3731 17.387C32.3731 17.1725 31.8319 16.159 31.1098 15.0006H30.0617L30.4755 14.0097C29.1765 11.9717 29.2982 11.6519 31.1027 9.835C31.7462 9.18716 32.249 8.76576 32.7238 8.54634C32.7349 8.51716 32.7445 8.49154 32.7525 8.4697C32.9496 7.93351 33.1442 7.84571 33.4763 8.36392ZM3.97903 9.617C4.69415 5.777 6.13928 4.247 10.2105 3.017C14.1684 1.82 21.4477 1.81 21.4477 3C21.4477 3.55 18.9547 4 15.9085 4C11.0686 4 9.99096 4.382 7.3649 7.025C4.95934 9.447 4.48657 10.594 4.99609 12.775C5.76086 16.055 9.89264 20 12.5644 20C13.6261 20 14.4952 20.45 14.4952 21C14.4952 22.359 13.055 22.257 9.17156 20.623C5.19175 18.949 3.0762 14.465 3.97903 9.617ZM71.1085 5.727C70.0159 4.329 69.122 2.918 69.122 2.592C69.122 2.267 70.9098 2 73.0949 2C77.1264 2 78.2368 3.423 75.9782 5.697C75.3793 6.3 74.541 9.202 74.1159 12.147C73.7142 14.9297 73.5213 16.2659 73.4113 16.2591C73.3096 16.2528 73.2787 15.1009 73.219 12.885C73.1396 9.936 72.3778 7.352 71.1085 5.727ZM113.473 16.26C112.607 10.02 112.808 4.725 113.962 3.324C115.116 1.924 118.006 1.551 119.108 2.66C119.468 3.023 118.872 3.949 117.784 4.717C115.225 6.521 115.243 10.492 117.817 12.307C119.807 13.71 119.796 13.767 116.914 16.874C115.405 18.5001 114.676 19.2857 114.252 19.146C113.855 19.0154 113.725 18.0765 113.473 16.26ZM50.0463 10.77C48.3023 10.191 47.8364 6.225 49.3034 4.445C49.9579 3.65 51.1419 3 51.9334 3C53.1114 3 53.0766 3.298 51.7398 4.644C50.6681 5.722 50.3175 7.131 50.7187 8.742C51.1558 10.494 50.9631 11.074 50.0463 10.77ZM124.83 11.227C126.058 9.236 126.021 8.583 124.532 5.962C122.875 3.047 122.881 2.997 124.78 4.02C127.208 5.329 127.388 10.206 125.079 12.128C123.568 13.385 123.547 13.309 124.83 11.227ZM58.0556 19.387C59.7957 18.16 60.194 17.18 59.7222 15.289C59.2793 13.509 59.468 12.925 60.3877 13.23C62.1318 13.809 62.5976 17.775 61.1306 19.555C60.4761 20.35 59.0012 21 57.854 21C55.8179 21 55.8229 20.961 58.0556 19.387Z" fill="url(#paint0_linear_990_206)" fill-opacity="0.41"/>
<defs>
<linearGradient id="paint0_linear_990_206" x1="85.7875" y1="2" x2="85.7875" y2="21.9411" gradientUnits="userSpaceOnUse">
<stop stop-color="white"/>
<stop offset="1" stop-color="white" stop-opacity="0"/>
</linearGradient>
</defs>
</svg>
