<svg width="36" height="20" viewBox="0 0 36 20" fill="none" xmlns="http://www.w3.org/2000/svg">
<g clip-path="url(#clip0_1422_312)">
<rect width="36" height="20" rx="10" fill="#DBDBDC"/>
<g filter="url(#filter0_d_1422_312)">
<rect x="3" y="3" width="14" height="14" rx="7" fill="white"/>
</g>
</g>
<g clip-path="url(#clip1_1422_312)">
<path d="M9.99935 8.00033C9.60379 8.00033 9.21711 8.11762 8.88821 8.33739C8.55931 8.55715 8.30297 8.86951 8.15159 9.23496C8.00021 9.60041 7.96061 10.0025 8.03778 10.3905C8.11495 10.7785 8.30543 11.1348 8.58514 11.4145C8.86484 11.6942 9.22121 11.8847 9.60917 11.9619C9.99713 12.0391 10.3993 11.9995 10.7647 11.8481C11.1302 11.6967 11.4425 11.4404 11.6623 11.1115C11.8821 10.7826 11.9993 10.3959 11.9993 10.0003C11.9993 9.46989 11.7886 8.96118 11.4136 8.58611C11.0385 8.21104 10.5298 8.00033 9.99935 8.00033ZM9.99935 11.667C9.66971 11.667 9.34748 11.5692 9.0734 11.3861C8.79932 11.203 8.5857 10.9427 8.45955 10.6381C8.3334 10.3336 8.3004 9.99848 8.36471 9.67518C8.42902 9.35187 8.58775 9.0549 8.82084 8.82181C9.05393 8.58873 9.3509 8.42999 9.6742 8.36568C9.9975 8.30137 10.3326 8.33438 10.6372 8.46053C10.9417 8.58667 11.202 8.80029 11.3851 9.07438C11.5683 9.34846 11.666 9.67069 11.666 10.0003C11.666 10.4424 11.4904 10.8663 11.1779 11.1788C10.8653 11.4914 10.4414 11.667 9.99935 11.667ZM7.66602 10.0003C7.66602 9.95612 7.64846 9.91373 7.6172 9.88247C7.58594 9.85122 7.54355 9.83366 7.49935 9.83366H6.33268C6.28848 9.83366 6.24609 9.85122 6.21483 9.88247C6.18358 9.91373 6.16602 9.95612 6.16602 10.0003C6.16602 10.0445 6.18358 10.0869 6.21483 10.1182C6.24609 10.1494 6.28848 10.167 6.33268 10.167H7.49935C7.54355 10.167 7.58594 10.1494 7.6172 10.1182C7.64846 10.0869 7.66602 10.0445 7.66602 10.0003ZM9.99935 7.66699C10.0436 7.66699 10.0859 7.64943 10.1172 7.61818C10.1485 7.58692 10.166 7.54453 10.166 7.50033V6.33366C10.166 6.28946 10.1485 6.24706 10.1172 6.21581C10.0859 6.18455 10.0436 6.16699 9.99935 6.16699C9.95515 6.16699 9.91275 6.18455 9.8815 6.21581C9.85024 6.24706 9.83268 6.28946 9.83268 6.33366V7.50033C9.83268 7.54453 9.85024 7.58692 9.8815 7.61818C9.91275 7.64943 9.95515 7.66699 9.99935 7.66699ZM13.666 9.83366H12.4993C12.4551 9.83366 12.4128 9.85122 12.3815 9.88247C12.3502 9.91373 12.3327 9.95612 12.3327 10.0003C12.3327 10.0445 12.3502 10.0869 12.3815 10.1182C12.4128 10.1494 12.4551 10.167 12.4993 10.167H13.666C13.7102 10.167 13.7526 10.1494 13.7839 10.1182C13.8151 10.0869 13.8327 10.0445 13.8327 10.0003C13.8327 9.95612 13.8151 9.91373 13.7839 9.88247C13.7526 9.85122 13.7102 9.83366 13.666 9.83366ZM9.99935 12.3337C9.95515 12.3337 9.91275 12.3512 9.8815 12.3825C9.85024 12.4137 9.83268 12.4561 9.83268 12.5003V13.667C9.83268 13.7112 9.85024 13.7536 9.8815 13.7848C9.91275 13.8161 9.95515 13.8337 9.99935 13.8337C10.0436 13.8337 10.0859 13.8161 10.1172 13.7848C10.1485 13.7536 10.166 13.7112 10.166 13.667V12.5003C10.166 12.4561 10.1485 12.4137 10.1172 12.3825C10.0859 12.3512 10.0436 12.3337 9.99935 12.3337ZM8.11435 8.35033C8.14623 8.37763 8.18725 8.3919 8.22919 8.39028C8.27114 8.38866 8.31093 8.37127 8.34061 8.34159C8.37029 8.3119 8.38768 8.27211 8.3893 8.23017C8.39092 8.18822 8.37665 8.14721 8.34935 8.11533L7.05268 6.81866C7.0208 6.79135 6.97979 6.77709 6.93784 6.77871C6.89589 6.78033 6.8561 6.79772 6.82642 6.8274C6.79674 6.85708 6.77935 6.89687 6.77773 6.93882C6.77611 6.98076 6.79038 7.02178 6.81768 7.05366L8.11435 8.35033ZM11.7677 8.39866C11.7896 8.39879 11.8114 8.39458 11.8317 8.38629C11.852 8.37799 11.8704 8.36577 11.886 8.35033L13.1827 7.05366C13.21 7.02178 13.2243 6.98076 13.2226 6.93882C13.221 6.89687 13.2036 6.85708 13.1739 6.8274C13.1443 6.79772 13.1045 6.78033 13.0625 6.77871C13.0206 6.77709 12.9796 6.79135 12.9477 6.81866L11.6493 8.11533C11.6258 8.13864 11.6098 8.16842 11.6033 8.20088C11.5968 8.23334 11.6001 8.267 11.6128 8.29757C11.6255 8.32815 11.647 8.35425 11.6746 8.37255C11.7022 8.39085 11.7346 8.40052 11.7677 8.40033V8.39866ZM11.8843 11.6503C11.8525 11.623 11.8115 11.6088 11.7695 11.6104C11.7276 11.612 11.6878 11.6294 11.6581 11.6591C11.6284 11.6887 11.611 11.7285 11.6094 11.7705C11.6078 11.8124 11.622 11.8534 11.6493 11.8853L12.946 13.182C12.9779 13.2093 13.0189 13.2236 13.0609 13.2219C13.1028 13.2203 13.1426 13.2029 13.1723 13.1733C13.202 13.1436 13.2193 13.1038 13.221 13.0618C13.2226 13.0199 13.2083 12.9789 13.181 12.947L11.8843 11.6503ZM8.11435 11.6503L6.81768 12.947C6.80024 12.9619 6.78607 12.9803 6.77606 13.001C6.76606 13.0217 6.76044 13.0442 6.75955 13.0672C6.75866 13.0901 6.76253 13.113 6.77091 13.1344C6.77929 13.1558 6.792 13.1752 6.80824 13.1914C6.82448 13.2077 6.84391 13.2204 6.8653 13.2288C6.88668 13.2371 6.90957 13.241 6.93252 13.2401C6.95548 13.2392 6.978 13.2336 6.99868 13.2236C7.01935 13.2136 7.03774 13.1994 7.05268 13.182L8.34935 11.8853C8.37665 11.8534 8.39092 11.8124 8.3893 11.7705C8.38768 11.7285 8.37029 11.6887 8.34061 11.6591C8.31093 11.6294 8.27114 11.612 8.22919 11.6104C8.18725 11.6088 8.14623 11.623 8.11435 11.6503Z" fill="black"/>
</g>
<defs>
<filter id="filter0_d_1422_312" x="-1" y="1" width="22" height="22" filterUnits="userSpaceOnUse" color-interpolation-filters="sRGB">
<feFlood flood-opacity="0" result="BackgroundImageFix"/>
<feColorMatrix in="SourceAlpha" type="matrix" values="0 0 0 0 0 0 0 0 0 0 0 0 0 0 0 0 0 0 127 0" result="hardAlpha"/>
<feMorphology radius="4" operator="erode" in="SourceAlpha" result="effect1_dropShadow_1422_312"/>
<feOffset dy="2"/>
<feGaussianBlur stdDeviation="4"/>
<feComposite in2="hardAlpha" operator="out"/>
<feColorMatrix type="matrix" values="0 0 0 0 0.156863 0 0 0 0 0.141176 0 0 0 0 0.196078 0 0 0 0.24 0"/>
<feBlend mode="normal" in2="BackgroundImageFix" result="effect1_dropShadow_1422_312"/>
<feBlend mode="normal" in="SourceGraphic" in2="effect1_dropShadow_1422_312" result="shape"/>
</filter>
<clipPath id="clip0_1422_312">
<rect width="36" height="20" rx="10" fill="white"/>
</clipPath>
<clipPath id="clip1_1422_312">
<rect width="8" height="8" fill="white" transform="translate(6 6)"/>
</clipPath>
</defs>
</svg>
