<svg width="36" height="20" viewBox="0 0 36 20" fill="none" xmlns="http://www.w3.org/2000/svg">
<g clip-path="url(#clip0_1422_313)">
<rect width="36" height="20" rx="10" fill="#1E1E1F"/>
<g filter="url(#filter0_d_1422_313)">
<rect x="19" y="3" width="14" height="14" rx="7" fill="#F5F5F6"/>
</g>
</g>
<g clip-path="url(#clip1_1422_313)">
<path d="M25.8613 13.2416C25.0408 13.2407 24.2499 12.9346 23.6426 12.3828C23.7138 12.3828 23.7851 12.3828 23.8563 12.3828C24.5091 12.3821 25.1489 12.2004 25.7046 11.8578C26.2603 11.5152 26.71 11.0252 27.0039 10.4422C27.2977 9.8593 27.424 9.20628 27.3688 8.55582C27.3137 7.90535 27.0791 7.28294 26.6913 6.75781C27.4658 6.96064 28.1399 7.4385 28.5878 8.1021C29.0356 8.76571 29.2265 9.56967 29.1249 10.3638C29.0232 11.1579 28.6359 11.8878 28.0353 12.4172C27.4347 12.9466 26.6619 13.2392 25.8613 13.2403V13.2416Z" fill="#121212"/>
<path d="M24.9745 7.79043C24.9881 7.78784 25.0011 7.78223 25.0123 7.77401C25.0236 7.7658 25.0328 7.75518 25.0395 7.74293L25.2582 7.34668L25.4757 7.74293C25.4823 7.75518 25.4916 7.7658 25.5028 7.77401C25.5141 7.78223 25.527 7.78784 25.5407 7.79043L25.9845 7.87543L25.6757 8.20543C25.6659 8.21534 25.6586 8.22738 25.6542 8.24061C25.6499 8.25385 25.6487 8.2679 25.6507 8.28168L25.707 8.72918L25.2982 8.53793C25.2858 8.53176 25.2721 8.52855 25.2582 8.52855C25.2443 8.52855 25.2306 8.53176 25.2182 8.53793L24.8082 8.72918L24.8645 8.28168C24.8664 8.268 24.8653 8.25405 24.8612 8.24086C24.8571 8.22766 24.8501 8.21556 24.8407 8.20543L24.5307 7.87543L24.9745 7.79043ZM23.0332 9.63168L23.0695 9.34168C23.0713 9.32791 23.07 9.3139 23.0657 9.3007C23.0613 9.2875 23.0541 9.27545 23.0445 9.26543L22.8457 9.05293L23.132 9.00043C23.1455 8.9976 23.1584 8.99189 23.1696 8.9837C23.1808 8.97551 23.1901 8.96502 23.197 8.95293L23.337 8.70293L23.4782 8.95293C23.4846 8.96509 23.4937 8.97566 23.5047 8.98388C23.5157 8.99209 23.5285 8.99775 23.542 9.00043L23.8282 9.05418L23.6257 9.26543C23.6163 9.27559 23.6092 9.28767 23.6049 9.30083C23.6006 9.31398 23.5991 9.32792 23.6007 9.34168L23.637 9.63168L23.3732 9.50668C23.3606 9.50094 23.347 9.49797 23.3332 9.49797C23.3194 9.49797 23.3058 9.50094 23.2932 9.50668L23.0332 9.63168ZM25.4632 10.4079C25.4539 10.4181 25.4469 10.4302 25.4428 10.4434C25.4387 10.4566 25.4376 10.4705 25.4395 10.4842L25.4757 10.7729L25.212 10.6479C25.1994 10.6421 25.1858 10.6391 25.172 10.6392C25.1581 10.6389 25.1444 10.6419 25.132 10.6479L24.8682 10.7729L24.9045 10.4842C24.9061 10.4704 24.9047 10.4565 24.9004 10.4433C24.8961 10.4301 24.8889 10.418 24.8795 10.4079L24.6795 10.1954L24.9657 10.1404C24.9792 10.1379 24.9921 10.1324 25.0033 10.1245C25.0145 10.1165 25.0239 10.1061 25.0307 10.0942L25.172 9.83793L25.312 10.0942C25.3188 10.1061 25.3281 10.1165 25.3394 10.1245C25.3506 10.1324 25.3634 10.1379 25.377 10.1404L25.6632 10.1954L25.4632 10.4079Z" fill="#121212"/>
</g>
<defs>
<filter id="filter0_d_1422_313" x="15" y="1" width="22" height="22" filterUnits="userSpaceOnUse" color-interpolation-filters="sRGB">
<feFlood flood-opacity="0" result="BackgroundImageFix"/>
<feColorMatrix in="SourceAlpha" type="matrix" values="0 0 0 0 0 0 0 0 0 0 0 0 0 0 0 0 0 0 127 0" result="hardAlpha"/>
<feMorphology radius="4" operator="erode" in="SourceAlpha" result="effect1_dropShadow_1422_313"/>
<feOffset dy="2"/>
<feGaussianBlur stdDeviation="4"/>
<feComposite in2="hardAlpha" operator="out"/>
<feColorMatrix type="matrix" values="0 0 0 0 0.156863 0 0 0 0 0.141176 0 0 0 0 0.196078 0 0 0 0.24 0"/>
<feBlend mode="normal" in2="BackgroundImageFix" result="effect1_dropShadow_1422_313"/>
<feBlend mode="normal" in="SourceGraphic" in2="effect1_dropShadow_1422_313" result="shape"/>
</filter>
<clipPath id="clip0_1422_313">
<rect width="36" height="20" rx="10" fill="white"/>
</clipPath>
<clipPath id="clip1_1422_313">
<rect width="8" height="8" fill="white" transform="translate(22 6)"/>
</clipPath>
</defs>
</svg>
