<svg width="40" height="40" viewBox="0 0 40 40" fill="none" xmlns="http://www.w3.org/2000/svg">
<rect width="40" height="40" rx="20" fill="black"/>
<path d="M27.891 24.2526C27.8104 24.0775 27.6756 23.9264 27.5021 23.8166C27.3287 23.7069 27.1238 23.6431 26.9111 23.6326C25.6421 23.5644 24.4206 23.1799 23.3867 22.5231C22.3528 21.8663 21.5485 20.9639 21.0663 19.9196C20.584 18.8753 20.4433 17.7314 20.6603 16.6193C20.8773 15.5072 21.4432 14.472 22.2931 13.6326C22.4244 13.4972 22.5125 13.333 22.5482 13.1571C22.5838 12.9813 22.5657 12.8001 22.4958 12.6326C22.4152 12.4576 22.2804 12.3064 22.1069 12.1967C21.9335 12.0869 21.7286 12.0231 21.5159 12.0126C20.1808 11.946 18.8457 12.1442 17.6075 12.5926C16.3552 13.0461 15.234 13.744 14.327 14.6347C13.4199 15.5253 12.7503 16.5858 12.3679 17.7375C11.9854 18.8892 11.8998 20.1026 12.1175 21.2877C12.3352 22.4727 12.8505 23.5991 13.6253 24.5832C14.4002 25.5674 15.4145 26.384 16.5933 26.9727C17.7721 27.5613 19.085 27.9069 20.4346 27.9836C21.7843 28.0604 23.1361 27.8665 24.3899 27.4162C25.6436 26.9659 26.7671 26.2709 27.677 25.3826C27.8388 25.2364 27.9461 25.0496 27.9844 24.8475C28.0227 24.6454 27.9901 24.4377 27.891 24.2526Z" fill="white"/>
</svg>
