<svg width="20" height="20" viewBox="0 0 20 20" fill="none" xmlns="http://www.w3.org/2000/svg">
<path d="M12.1987 3.33203C12.532 3.33203 12.808 3.4387 13.048 3.64536L13.1367 3.72736L16.27 6.8607C16.502 7.0927 16.634 7.35736 16.6607 7.6767L16.6654 7.7987V12.1987C16.6654 12.532 16.5587 12.808 16.352 13.048L16.27 13.1367L13.1367 16.27C12.9047 16.502 12.64 16.634 12.3207 16.6607L12.1987 16.6654H7.7987C7.46536 16.6654 7.18936 16.5587 6.94936 16.352L6.8607 16.27L3.72736 13.1367C3.49536 12.9047 3.36336 12.64 3.3367 12.3207L3.33203 12.1987V7.7987C3.33203 7.46536 3.4387 7.18936 3.64536 6.94936L3.72736 6.8607L6.8607 3.72736C7.0927 3.49536 7.35736 3.36336 7.6767 3.3367L7.7987 3.33203H12.1987ZM10.0054 11.9987L9.9207 12.0034C9.75866 12.0226 9.60933 12.1007 9.50097 12.2227C9.39262 12.3447 9.33277 12.5022 9.33277 12.6654C9.33277 12.8285 9.39262 12.986 9.50097 13.1081C9.60933 13.2301 9.75866 13.3081 9.9207 13.3274L9.9987 13.332L10.0834 13.3274C10.2454 13.3081 10.3947 13.2301 10.5031 13.1081C10.6114 12.986 10.6713 12.8285 10.6713 12.6654C10.6713 12.5022 10.6114 12.3447 10.5031 12.2227C10.3947 12.1007 10.2454 12.0226 10.0834 12.0034L10.0054 11.9987ZM9.9987 6.66536C9.83541 6.66539 9.67781 6.72533 9.55578 6.83384C9.43376 6.94235 9.3558 7.09186 9.3367 7.25403L9.33203 7.33203V9.9987L9.3367 10.0767C9.35597 10.2387 9.434 10.3881 9.55601 10.4964C9.67801 10.6048 9.83552 10.6646 9.9987 10.6646C10.1619 10.6646 10.3194 10.6048 10.4414 10.4964C10.5634 10.3881 10.6414 10.2387 10.6607 10.0767L10.6654 9.9987V7.33203L10.6607 7.25403C10.6416 7.09186 10.5636 6.94235 10.4416 6.83384C10.3196 6.72533 10.162 6.66539 9.9987 6.66536Z" fill="#CE3B3B"/>
</svg>
