<svg width="40" height="40" viewBox="0 0 40 40" fill="none" xmlns="http://www.w3.org/2000/svg">
<rect width="40" height="40" rx="20" fill="#E0E0E0"/>
<g clip-path="url(#clip0_1010_186)">
<path d="M20 15.5C17.519 15.5 15.5 17.519 15.5 20C15.5 22.481 17.519 24.5 20 24.5C22.481 24.5 24.5 22.481 24.5 20C24.5 17.519 22.481 15.5 20 15.5ZM20 23.5C18.07 23.5 16.5 21.93 16.5 20C16.5 18.07 18.07 16.5 20 16.5C21.93 16.5 23.5 18.07 23.5 20C23.5 21.93 21.93 23.5 20 23.5ZM19.5 12H20.5V14H19.5V12ZM19.5 26H20.5V28H19.5V26ZM26 19.5H28V20.5H26V19.5ZM12 19.5H14V20.5H12V19.5ZM23.89 24.596L24.596 23.889L26.011 25.304L25.304 26.011L23.89 24.596ZM13.99 14.696L14.696 13.989L16.111 15.404L15.404 16.111L13.99 14.696ZM13.99 25.304L15.404 23.889L16.111 24.596L14.696 26.011L13.99 25.304ZM23.89 15.404L25.304 13.989L26.011 14.696L24.596 16.111L23.89 15.404Z" fill="#121212"/>
</g>
<defs>
<clipPath id="clip0_1010_186">
<rect width="16" height="16" fill="white" transform="translate(12 12)"/>
</clipPath>
</defs>
</svg>
